<svg fill="none" height="18" viewBox="0 0 91 18" width="91" xmlns="http://www.w3.org/2000/svg">
    <path clip-rule="evenodd" d="M22.2293 3.95748H19.0359C18.5354 3.95748 18.1067 4.39642 18.1067 4.90946V8.91455L23.1584 7.52251V4.90946C23.1584 4.39642 22.7298 3.95748 22.2293 3.95748ZM37.072 3.95748H32.6393V8.67058L37.5246 7.37658C37.7868 7.20557 38.0011 6.8875 38.0011 6.54547V4.90946C38.0011 4.39642 37.5952 3.95748 37.072 3.95748ZM12.4383 13.0667C12.4383 15.6068 10.4123 17.6578 7.95775 17.6578H0V0.318359H5.50431C7.9817 0.318359 9.98367 2.36936 9.98367 4.90946V6.81453V6.81457C9.98367 7.05853 9.98367 7.25461 9.93579 7.49858C11.4133 8.23165 12.4383 9.79469 12.4383 11.6006V13.0667ZM26.7086 17.6578H23.1584V11.2346L18.1067 12.6517V17.6578H14.5565V4.90946C14.5565 2.36936 16.5585 0.318359 19.0359 0.318359H22.2293C24.7067 0.318359 26.7086 2.36936 26.7086 4.90946V17.6578ZM41.5274 6.54547C41.5274 8.32856 40.5264 9.8916 39.001 10.6486L40.8365 17.6578H37.1905L35.6184 11.6257L32.6393 12.4317V17.6578H29.137V0.318359H37.072C39.5254 0.318359 41.5274 2.36936 41.5274 4.90946V6.54547ZM47.2677 17.6578H43.7414V0.318359H47.2677V17.6578ZM62.2301 5.61745H58.7038V4.90946C58.7038 4.39642 58.2751 3.95748 57.7746 3.95748H54.2963C53.7718 3.95748 53.3192 4.39642 53.3192 4.90946V7.49858C53.3192 7.69353 53.3671 7.81552 53.415 7.8406C53.4389 7.86454 53.4857 7.86454 53.5814 7.86454H53.5814C53.6293 7.86454 53.724 7.86454 53.7958 7.8406L56.9173 7.08359C56.9173 7.08359 57.4646 6.9616 57.7507 6.9616C60.1335 6.9616 62.2301 8.98866 62.2301 11.5276V13.0907C62.2301 15.6308 60.2053 17.6818 57.7507 17.6818H54.2723C51.7949 17.6818 49.793 15.6308 49.793 13.0907V12.9447H53.3192V13.0907C53.3192 13.6037 53.7718 14.0677 54.2723 14.0677H57.7507C58.2512 14.0677 58.7038 13.6037 58.7038 13.0907V11.5276C58.7038 11.0157 58.347 10.6726 57.8944 10.5517C57.7507 10.5266 54.6064 11.3817 54.6064 11.3817C54.2723 11.4786 53.9383 11.5037 53.6054 11.5037C52.7241 11.5037 51.9375 11.2107 51.2705 10.6726C50.3641 9.91554 49.793 8.79257 49.793 7.49858V4.93454C49.793 2.39444 51.8177 0.318359 54.2963 0.318359H58.0369C60.3957 0.318359 62.2301 2.49249 62.2301 4.90946V5.61745ZM76.3101 3.9324H72.3312V17.6578H68.781V3.9324H64.7542V0.318359H76.3101V3.9324ZM90.7241 17.6578H87.1739V11.2346L82.1233 12.6517V17.6578H78.5731V4.90946C78.5731 2.36936 80.574 0.318359 83.0525 0.318359H86.2447C88.7232 0.318359 90.7241 2.36936 90.7241 4.90946V17.6578ZM86.2447 3.95748H83.0525C82.552 3.95748 82.1233 4.39642 82.1233 4.90946V8.91455L87.1739 7.52251V4.90946C87.1739 4.39642 86.7452 3.95748 86.2447 3.95748ZM5.16843 6.90847L3 7.4215V3.31836H4.9541C5.47853 3.31836 5.9072 3.75844 5.9072 4.29542V6.2495C5.9072 6.37149 5.5971 6.78648 5.16843 6.90847ZM8.33671 12.962V11.3738C8.33671 10.9098 8.00381 10.496 7.55119 10.4219L3 11.5449V13.939H7.40754C7.90804 13.939 8.33671 13.499 8.33671 12.962Z"
        fill="#F6E5B8"
        fill-rule="evenodd" />
</svg>
