<svg fill="none" height="24" viewBox="0 0 25 24" width="25" xmlns="http://www.w3.org/2000/svg">
    <path d="M9.30945 2L5.68945 5.63" stroke="white" stroke-linecap="round" stroke-linejoin="round"
        stroke-miterlimit="10" stroke-opacity="0.7" stroke-width="1.5" />
    <path d="M15.6895 2L19.3095 5.63" stroke="white" stroke-linecap="round" stroke-linejoin="round"
        stroke-miterlimit="10" stroke-opacity="0.7" stroke-width="1.5" />
    <path
        d="M2.5 7.84961C2.5 5.99961 3.49 5.84961 4.72 5.84961H20.28C21.51 5.84961 22.5 5.99961 22.5 7.84961C22.5 9.99961 21.51 9.84961 20.28 9.84961H4.72C3.49 9.84961 2.5 9.99961 2.5 7.84961Z"
        stroke="white" stroke-opacity="0.7" stroke-width="1.5" />
    <path d="M10.2598 14V17.55" stroke="white" stroke-linecap="round" stroke-opacity="0.7"
        stroke-width="1.5" />
    <path d="M14.8594 14V17.55" stroke="white" stroke-linecap="round" stroke-opacity="0.7"
        stroke-width="1.5" />
    <path d="M4 10L5.41 18.64C5.73 20.58 6.5 22 9.36 22H15.39C18.5 22 18.96 20.64 19.32 18.76L21 10"
        stroke="white" stroke-linecap="round" stroke-opacity="0.7" stroke-width="1.5" />
</svg>
