<svg fill="none" height="25" viewBox="0 0 129 25" width="129" xmlns="http://www.w3.org/2000/svg">
    <path
        d="M9.15483 24.4432C7.28362 24.4432 5.67756 23.9697 4.33665 23.0227C3.00331 22.0682 1.9768 20.6932 1.2571 18.8977C0.544981 17.0947 0.18892 14.9242 0.18892 12.3864C0.196496 9.84848 0.556345 7.68939 1.26847 5.90909C1.98816 4.12121 3.01468 2.75758 4.34801 1.81818C5.68892 0.878787 7.29119 0.40909 9.15483 0.40909C11.0185 0.40909 12.6207 0.878787 13.9616 1.81818C15.3026 2.75758 16.3291 4.12121 17.0412 5.90909C17.7609 7.69697 18.1207 9.85606 18.1207 12.3864C18.1207 14.9318 17.7609 17.1061 17.0412 18.9091C16.3291 20.7045 15.3026 22.0758 13.9616 23.0227C12.6283 23.9697 11.026 24.4432 9.15483 24.4432ZM9.15483 20.8864C10.6094 20.8864 11.7571 20.1705 12.598 18.7386C13.4465 17.2992 13.8707 15.1818 13.8707 12.3864C13.8707 10.5379 13.6776 8.98485 13.2912 7.72727C12.9048 6.4697 12.3594 5.52273 11.6548 4.88636C10.9503 4.24242 10.117 3.92045 9.15483 3.92045C7.70786 3.92045 6.56392 4.64015 5.72301 6.07954C4.8821 7.51136 4.45786 9.61364 4.45028 12.3864C4.44271 14.2424 4.62831 15.803 5.0071 17.0682C5.39347 18.3333 5.93892 19.2879 6.64347 19.9318C7.34801 20.5682 8.18513 20.8864 9.15483 20.8864ZM28.4986 24.4432C26.6274 24.4432 25.0213 23.9697 23.6804 23.0227C22.3471 22.0682 21.3205 20.6932 20.6009 18.8977C19.8887 17.0947 19.5327 14.9242 19.5327 12.3864C19.5402 9.84848 19.9001 7.68939 20.6122 5.90909C21.3319 4.12121 22.3584 2.75758 23.6918 1.81818C25.0327 0.878787 26.6349 0.40909 28.4986 0.40909C30.3622 0.40909 31.9645 0.878787 33.3054 1.81818C34.6463 2.75758 35.6728 4.12121 36.3849 5.90909C37.1046 7.69697 37.4645 9.85606 37.4645 12.3864C37.4645 14.9318 37.1046 17.1061 36.3849 18.9091C35.6728 20.7045 34.6463 22.0758 33.3054 23.0227C31.9721 23.9697 30.3698 24.4432 28.4986 24.4432ZM28.4986 20.8864C29.9531 20.8864 31.1009 20.1705 31.9418 18.7386C32.7902 17.2992 33.2145 15.1818 33.2145 12.3864C33.2145 10.5379 33.0213 8.98485 32.6349 7.72727C32.2486 6.4697 31.7031 5.52273 30.9986 4.88636C30.294 4.24242 29.4607 3.92045 28.4986 3.92045C27.0516 3.92045 25.9077 4.64015 25.0668 6.07954C24.2259 7.51136 23.8016 9.61364 23.794 12.3864C23.7865 14.2424 23.9721 15.803 24.3509 17.0682C24.7372 18.3333 25.2827 19.2879 25.9872 19.9318C26.6918 20.5682 27.5289 20.8864 28.4986 20.8864ZM41.8196 21.2045C41.1302 21.2045 40.5393 20.9621 40.0469 20.4773C39.5545 19.9848 39.312 19.3939 39.3196 18.7045C39.312 18.0227 39.5545 17.4394 40.0469 16.9545C40.5393 16.4697 41.1302 16.2273 41.8196 16.2273C42.4863 16.2273 43.0658 16.4697 43.5582 16.9545C44.0582 17.4394 44.312 18.0227 44.3196 18.7045C44.312 19.1667 44.1908 19.5871 43.956 19.9659C43.7287 20.3447 43.4257 20.6477 43.0469 20.875C42.6757 21.0947 42.2666 21.2045 41.8196 21.2045ZM41.8196 9.67045C41.1302 9.67045 40.5393 9.42803 40.0469 8.94318C39.5545 8.45076 39.312 7.85985 39.3196 7.17045C39.312 6.48864 39.5545 5.9053 40.0469 5.42045C40.5393 4.92803 41.1302 4.68182 41.8196 4.68182C42.4863 4.68182 43.0658 4.92803 43.5582 5.42045C44.0582 5.9053 44.312 6.48864 44.3196 7.17045C44.312 7.625 44.1908 8.04167 43.956 8.42045C43.7287 8.79924 43.4257 9.10227 43.0469 9.32955C42.6757 9.55682 42.2666 9.67045 41.8196 9.67045ZM55.1236 24.4432C53.2524 24.4432 51.6463 23.9697 50.3054 23.0227C48.9721 22.0682 47.9455 20.6932 47.2259 18.8977C46.5137 17.0947 46.1577 14.9242 46.1577 12.3864C46.1652 9.84848 46.5251 7.68939 47.2372 5.90909C47.9569 4.12121 48.9834 2.75758 50.3168 1.81818C51.6577 0.878787 53.2599 0.40909 55.1236 0.40909C56.9872 0.40909 58.5895 0.878787 59.9304 1.81818C61.2713 2.75758 62.2978 4.12121 63.0099 5.90909C63.7296 7.69697 64.0895 9.85606 64.0895 12.3864C64.0895 14.9318 63.7296 17.1061 63.0099 18.9091C62.2978 20.7045 61.2713 22.0758 59.9304 23.0227C58.5971 23.9697 56.9948 24.4432 55.1236 24.4432ZM55.1236 20.8864C56.5781 20.8864 57.7259 20.1705 58.5668 18.7386C59.4152 17.2992 59.8395 15.1818 59.8395 12.3864C59.8395 10.5379 59.6463 8.98485 59.2599 7.72727C58.8736 6.4697 58.3281 5.52273 57.6236 4.88636C56.919 4.24242 56.0857 3.92045 55.1236 3.92045C53.6766 3.92045 52.5327 4.64015 51.6918 6.07954C50.8509 7.51136 50.4266 9.61364 50.419 12.3864C50.4115 14.2424 50.5971 15.803 50.9759 17.0682C51.3622 18.3333 51.9077 19.2879 52.6122 19.9318C53.3168 20.5682 54.1539 20.8864 55.1236 20.8864ZM74.4673 24.4432C72.5961 24.4432 70.9901 23.9697 69.6491 23.0227C68.3158 22.0682 67.2893 20.6932 66.5696 18.8977C65.8575 17.0947 65.5014 14.9242 65.5014 12.3864C65.509 9.84848 65.8688 7.68939 66.581 5.90909C67.3007 4.12121 68.3272 2.75758 69.6605 1.81818C71.0014 0.878787 72.6037 0.40909 74.4673 0.40909C76.331 0.40909 77.9332 0.878787 79.2741 1.81818C80.6151 2.75758 81.6416 4.12121 82.3537 5.90909C83.0734 7.69697 83.4332 9.85606 83.4332 12.3864C83.4332 14.9318 83.0734 17.1061 82.3537 18.9091C81.6416 20.7045 80.6151 22.0758 79.2741 23.0227C77.9408 23.9697 76.3385 24.4432 74.4673 24.4432ZM74.4673 20.8864C75.9219 20.8864 77.0696 20.1705 77.9105 18.7386C78.759 17.2992 79.1832 15.1818 79.1832 12.3864C79.1832 10.5379 78.9901 8.98485 78.6037 7.72727C78.2173 6.4697 77.6719 5.52273 76.9673 4.88636C76.2628 4.24242 75.4295 3.92045 74.4673 3.92045C73.0204 3.92045 71.8764 4.64015 71.0355 6.07954C70.1946 7.51136 69.7704 9.61364 69.7628 12.3864C69.7552 14.2424 69.9408 15.803 70.3196 17.0682C70.706 18.3333 71.2514 19.2879 71.956 19.9318C72.6605 20.5682 73.4976 20.8864 74.4673 20.8864ZM87.7884 21.2045C87.099 21.2045 86.508 20.9621 86.0156 20.4773C85.5232 19.9848 85.2808 19.3939 85.2884 18.7045C85.2808 18.0227 85.5232 17.4394 86.0156 16.9545C86.508 16.4697 87.099 16.2273 87.7884 16.2273C88.455 16.2273 89.0346 16.4697 89.527 16.9545C90.027 17.4394 90.2808 18.0227 90.2884 18.7045C90.2808 19.1667 90.1596 19.5871 89.9247 19.9659C89.6974 20.3447 89.3944 20.6477 89.0156 20.875C88.6444 21.0947 88.2353 21.2045 87.7884 21.2045ZM87.7884 9.67045C87.099 9.67045 86.508 9.42803 86.0156 8.94318C85.5232 8.45076 85.2808 7.85985 85.2884 7.17045C85.2808 6.48864 85.5232 5.9053 86.0156 5.42045C86.508 4.92803 87.099 4.68182 87.7884 4.68182C88.455 4.68182 89.0346 4.92803 89.527 5.42045C90.027 5.9053 90.2808 6.48864 90.2884 7.17045C90.2808 7.625 90.1596 8.04167 89.9247 8.42045C89.6974 8.79924 89.3944 9.10227 89.0156 9.32955C88.6444 9.55682 88.2353 9.67045 87.7884 9.67045Z"
        fill="white" />
    <path
        d="M101.092 24.4432C99.2211 24.4432 97.6151 23.9697 96.2741 23.0227C94.9408 22.0682 93.9143 20.6932 93.1946 18.8977C92.4825 17.0947 92.1264 14.9242 92.1264 12.3864C92.134 9.84848 92.4938 7.68939 93.206 5.90909C93.9257 4.12121 94.9522 2.75758 96.2855 1.81818C97.6264 0.878787 99.2287 0.40909 101.092 0.40909C102.956 0.40909 104.558 0.878787 105.899 1.81818C107.24 2.75758 108.267 4.12121 108.979 5.90909C109.698 7.69697 110.058 9.85606 110.058 12.3864C110.058 14.9318 109.698 17.1061 108.979 18.9091C108.267 20.7045 107.24 22.0758 105.899 23.0227C104.566 23.9697 102.964 24.4432 101.092 24.4432ZM101.092 20.8864C102.547 20.8864 103.695 20.1705 104.536 18.7386C105.384 17.2992 105.808 15.1818 105.808 12.3864C105.808 10.5379 105.615 8.98485 105.229 7.72727C104.842 6.4697 104.297 5.52273 103.592 4.88636C102.888 4.24242 102.054 3.92045 101.092 3.92045C99.6454 3.92045 98.5014 4.64015 97.6605 6.07954C96.8196 7.51136 96.3954 9.61364 96.3878 12.3864C96.3802 14.2424 96.5658 15.803 96.9446 17.0682C97.331 18.3333 97.8764 19.2879 98.581 19.9318C99.2855 20.5682 100.123 20.8864 101.092 20.8864ZM119.913 0.40909C121.027 0.416666 122.11 0.613636 123.163 1C124.224 1.37879 125.179 2 126.027 2.86364C126.875 3.7197 127.55 4.86742 128.05 6.30682C128.55 7.74621 128.8 9.52652 128.8 11.6477C128.807 13.6477 128.595 15.4356 128.163 17.0114C127.739 18.5795 127.129 19.9053 126.334 20.9886C125.538 22.072 124.58 22.8977 123.459 23.4659C122.338 24.0341 121.076 24.3182 119.675 24.3182C118.205 24.3182 116.902 24.0303 115.766 23.4545C114.637 22.8788 113.724 22.0909 113.027 21.0909C112.33 20.0909 111.902 18.947 111.743 17.6591H115.891C116.103 18.5833 116.535 19.3182 117.186 19.8636C117.845 20.4015 118.675 20.6705 119.675 20.6705C121.288 20.6705 122.531 19.9697 123.402 18.5682C124.273 17.1667 124.709 15.2197 124.709 12.7273H124.55C124.179 13.3939 123.697 13.9697 123.107 14.4545C122.516 14.9318 121.845 15.2992 121.095 15.5568C120.353 15.8144 119.565 15.9432 118.732 15.9432C117.368 15.9432 116.141 15.6174 115.05 14.9659C113.966 14.3144 113.107 13.4205 112.47 12.2841C111.841 11.1477 111.523 9.84848 111.516 8.38636C111.516 6.87121 111.864 5.51136 112.561 4.30682C113.266 3.0947 114.247 2.14015 115.504 1.44318C116.762 0.738635 118.232 0.393938 119.913 0.40909ZM119.925 3.81818C119.107 3.81818 118.368 4.01894 117.709 4.42045C117.057 4.81439 116.542 5.35227 116.163 6.03409C115.792 6.70833 115.607 7.46212 115.607 8.29545C115.614 9.12121 115.8 9.87121 116.163 10.5455C116.535 11.2197 117.038 11.7538 117.675 12.1477C118.319 12.5417 119.054 12.7386 119.879 12.7386C120.493 12.7386 121.065 12.6212 121.595 12.3864C122.125 12.1515 122.588 11.8258 122.982 11.4091C123.383 10.9848 123.694 10.5038 123.913 9.96591C124.141 9.42803 124.25 8.85985 124.243 8.26136C124.243 7.46591 124.054 6.73106 123.675 6.05682C123.304 5.38258 122.792 4.84091 122.141 4.43182C121.497 4.02273 120.758 3.81818 119.925 3.81818Z"
        fill="#EF9B28" />
</svg>
