<svg fill="none" height="20" viewBox="0 0 25 20" width="25" xmlns="http://www.w3.org/2000/svg">
    <path
        d="M5.95 3.9375C5.95 3.9375 4.44339 9.00451 6.57564 12.46C9.07624 16.5123 15.5218 16.6262 19.5257 14.2457C19.5257 14.2457 18.3371 18.6006 16.3977 18.6625C14.4583 18.7243 4.44851 18.6625 4.44851 18.6625C4.44851 18.6625 -1.61982 14.139 2.88454 5.69717L4.79928 3.93755L5.95 3.9375Z"
        fill="#894016" />
    <path
        d="M9.41461 7.10196H11.6058C11.9168 7.10196 12.1688 6.85256 12.1688 6.54512C12.1688 6.23768 11.9168 5.98828 11.6058 5.98828H9.41461C9.10358 5.98828 8.85156 6.23768 8.85156 6.54512C8.85156 6.85256 9.10358 7.10196 9.41461 7.10196Z"
        fill="#C5C3C3" />
    <path
        d="M11.6058 11.8637C11.9168 11.8637 12.1688 11.6143 12.1688 11.3068C12.1688 10.9992 11.9168 10.75 11.6058 10.75H9.41461C9.10358 10.75 8.85156 10.9992 8.85156 11.3068C8.85156 11.6143 9.10358 11.8637 9.41461 11.8637H11.6058Z"
        fill="#C5C3C3" />
    <path
        d="M11.6058 15.5117H9.41461C9.10358 15.5117 8.85156 15.761 8.85156 16.0686C8.85156 16.3762 9.10358 16.6254 9.41461 16.6254H11.6058C11.9168 16.6254 12.1688 16.3762 12.1688 16.0686C12.1688 15.761 11.9168 15.5117 11.6058 15.5117Z"
        fill="#C5C3C3" />
    <path
        d="M13.0665 8.37109H7.95368C7.64264 8.37109 7.39062 8.62033 7.39062 8.92793C7.39062 9.23538 7.64264 9.48477 7.95368 9.48477H13.0665C13.3776 9.48477 13.6296 9.23538 13.6296 8.92793C13.6296 8.62033 13.3776 8.37109 13.0665 8.37109Z"
        fill="#C5C3C3" />
    <path
        d="M13.0665 13.1328H7.95368C7.64264 13.1328 7.39062 13.3822 7.39062 13.6897C7.39062 13.9971 7.64264 14.2465 7.95368 14.2465H13.0665C13.3776 14.2465 13.6296 13.9971 13.6296 13.6897C13.6296 13.3822 13.3776 13.1328 13.0665 13.1328Z"
        fill="#C5C3C3" />
    <path
        d="M18.4572 3.34147H16.8932V1.01587C16.8932 0.605862 16.557 0.273438 16.1425 0.273438H3.79191C3.55474 0.273438 3.33167 0.384193 3.19004 0.572165C3.04835 0.760296 3.00472 1.00341 3.07254 1.22798L3.85563 3.82527C1.6094 5.74244 0.330078 8.48855 0.330078 11.4388C0.330078 14.3863 1.63269 17.1771 3.90374 19.0956C4.03955 19.2103 4.21259 19.2734 4.39128 19.2734H16.628C16.8067 19.2734 16.9798 19.2104 17.1156 19.0956C19.3868 17.177 20.6894 14.3863 20.6894 11.4388C20.6894 8.96907 19.7907 6.64385 18.1813 4.82634H18.4572C20.8675 4.82634 22.8287 6.76564 22.8287 9.14944V14.2151C22.8287 14.6251 23.1648 14.9576 23.5794 14.9576C23.994 14.9576 24.3301 14.6251 24.3301 14.2151V9.14944C24.3301 5.94689 21.6956 3.34147 18.4572 3.34147ZM15.3917 1.75831V3.34142H5.27653L4.79924 1.75831H15.3917ZM16.3444 17.7885H4.67481C2.86453 16.1606 1.83151 13.8615 1.83151 11.4388C1.83151 8.86159 2.97609 6.46565 4.98103 4.82634H16.0382C18.0431 6.46565 19.1879 8.86159 19.1879 11.4388C19.1879 13.8615 18.1549 16.1605 16.3444 17.7885Z"
        fill="#C5C3C3" />
</svg>
