<svg fill="none" height="32" viewBox="0 0 25 32" width="25" xmlns="http://www.w3.org/2000/svg">
    <g filter="url(#filter0_d_320_5301)">
        <g clip-path="url(#clip0_320_5301)">
            <path
                d="M20.4574 7.94009L20.1281 6.3553V2.68749C20.1281 2.30782 19.8202 2 19.4405 2H5.03126C4.65159 2 4.34377 2.30782 4.34377 2.68749V6.3553L4.01448 7.94009C4.00489 7.98607 4 8.03307 4 8.08007V20.1758C4 20.2337 4.00738 20.2913 4.02181 20.3475L4.34372 21.5951V23.3126C4.34372 23.6922 4.65154 24 5.03121 24H19.4405C19.8202 24 20.128 23.6922 20.128 23.3126V21.5951L20.4499 20.3475C20.4644 20.2913 20.4718 20.2337 20.4718 20.1758V8.08007C20.4718 8.03307 20.467 7.98607 20.4574 7.94009ZM18.7531 3.37498V5.23454L18.6918 5.19659C18.4699 5.05945 18.1899 5.05945 17.968 5.19659L17.2196 5.66003L16.4727 5.19693C16.2508 5.0593 15.97 5.0593 15.7481 5.19693L15.0019 5.65969L14.2558 5.19693C14.0337 5.05911 13.7527 5.05945 13.5307 5.19707L12.7861 5.65949L12.0402 5.19693C11.8183 5.0593 11.5373 5.0593 11.3154 5.19693L10.5695 5.65969L9.82374 5.19712C9.60185 5.05916 9.32088 5.0593 9.09864 5.19712L8.35393 5.65954L7.60839 5.19712C7.38635 5.05916 7.10532 5.0595 6.88329 5.19712L6.13872 5.65954L5.71875 5.39887V3.37498H18.7531ZM19.0968 20.0885L18.7749 21.3361C18.7605 21.3922 18.7531 21.4499 18.7531 21.5078V22.625H5.71875V21.5078C5.71875 21.4499 5.71137 21.3922 5.69694 21.3361L5.37503 20.0885V8.15059L5.62294 6.95769L5.77636 7.05286C5.9984 7.19083 6.27957 7.19069 6.50161 7.05286L7.24618 6.59045L7.99177 7.05286C8.21366 7.19083 8.49464 7.19069 8.71687 7.05286L9.46158 6.59045L10.2072 7.05286C10.4291 7.19083 10.71 7.19069 10.9319 7.05301L11.6778 6.59025L12.4239 7.05301C12.6459 7.19083 12.927 7.19064 13.149 7.05286L13.8936 6.59045L14.6395 7.05301C14.8614 7.19064 15.1424 7.19064 15.3643 7.05301L16.1105 6.59025L16.8571 7.05301C17.0786 7.19049 17.3589 7.19064 17.5811 7.05335L18.3299 6.58976L18.8378 6.90414L19.0968 8.15059L19.0968 20.0885Z"
                fill="white" fill-opacity="0.7" />
            <path
                d="M12.9253 10.4395C12.9218 10.4395 12.9181 10.4395 12.9144 10.4395C12.0703 10.4428 11.1901 10.8453 10.4999 11.5434C9.28122 12.7757 9.06754 14.5524 10.0236 15.5041C10.4145 15.893 10.941 16.0984 11.547 16.0984C11.5505 16.0984 11.5542 16.0984 11.5579 16.0982C12.4019 16.0949 13.2821 15.6925 13.9723 14.9945C15.191 13.762 15.4047 11.9853 14.4487 11.0338C14.0578 10.6449 13.5312 10.4395 12.9253 10.4395ZM11.2331 12.2685C11.7249 11.7712 12.3549 11.4731 12.9186 11.4707C12.9208 11.4707 12.9228 11.4707 12.9249 11.4707C13.0384 11.4707 13.1744 11.4838 13.3124 11.5256C13.2568 11.7868 13.0727 12.2457 12.4655 12.6253C12.2255 12.7754 12.0167 12.891 11.8324 12.9931C11.223 13.3309 10.8179 13.5836 10.4772 14.2103C10.3754 13.6269 10.647 12.8612 11.2331 12.2685ZM13.2391 14.2694C12.7473 14.7665 12.1173 15.0648 11.5537 15.0672C11.456 15.0682 11.3443 15.0554 11.2308 15.0289C11.4948 14.3599 11.7439 14.2214 12.3325 13.8951C12.5303 13.7854 12.7544 13.6609 13.0124 13.4996C13.502 13.1935 13.8127 12.8403 14.013 12.5052C14.0383 13.0609 13.7675 13.735 13.2391 14.2694Z"
                fill="white" fill-opacity="0.7" />
            <path
                d="M17.7363 20.4766H17.5645C17.2796 20.4766 17.0488 20.7075 17.0488 20.9922C17.0488 21.2769 17.2796 21.5078 17.5645 21.5078H17.7363C18.0212 21.5078 18.2519 21.2769 18.2519 20.9922C18.2519 20.7075 18.0212 20.4766 17.7363 20.4766Z"
                fill="white" fill-opacity="0.7" />
            <path
                d="M10.5822 20.4766H10.2148C9.93001 20.4766 9.69922 20.7075 9.69922 20.9922C9.69922 21.2769 9.93001 21.5078 10.2148 21.5078H10.5822C10.8671 21.5078 11.0979 21.2769 11.0979 20.9922C11.0979 20.7075 10.8671 20.4766 10.5822 20.4766Z"
                fill="white" fill-opacity="0.7" />
            <path
                d="M8.74435 20.4766H8.37696C8.09212 20.4766 7.86133 20.7075 7.86133 20.9922C7.86133 21.2769 8.09212 21.5078 8.37696 21.5078H8.74435C9.02919 21.5078 9.25998 21.2769 9.25998 20.9922C9.25998 20.7075 9.02919 20.4766 8.74435 20.4766Z"
                fill="white" fill-opacity="0.7" />
            <path
                d="M16.094 20.4766H15.7266C15.4417 20.4766 15.2109 20.7075 15.2109 20.9922C15.2109 21.2769 15.4417 21.5078 15.7266 21.5078H16.094C16.3788 21.5078 16.6096 21.2769 16.6096 20.9922C16.6096 20.7075 16.3788 20.4766 16.094 20.4766Z"
                fill="white" fill-opacity="0.7" />
            <path
                d="M12.4203 20.4766H12.0527C11.7679 20.4766 11.5371 20.7075 11.5371 20.9922C11.5371 21.2769 11.7679 21.5078 12.0527 21.5078H12.4203C12.7052 21.5078 12.936 21.2769 12.936 20.9922C12.936 20.7075 12.7052 20.4766 12.4203 20.4766Z"
                fill="white" fill-opacity="0.7" />
            <path
                d="M14.2561 20.4766H13.8887C13.6038 20.4766 13.373 20.7075 13.373 20.9922C13.373 21.2769 13.6038 21.5078 13.8887 21.5078H14.2561C14.5409 21.5078 14.7717 21.2769 14.7717 20.9922C14.7717 20.7075 14.5409 20.4766 14.2561 20.4766Z"
                fill="white" fill-opacity="0.7" />
            <path
                d="M6.90824 20.4766H6.73633C6.4515 20.4766 6.2207 20.7075 6.2207 20.9922C6.2207 21.2769 6.4515 21.5078 6.73633 21.5078H6.90819C7.19303 21.5078 7.42382 21.2769 7.42382 20.9922C7.42382 20.7075 7.19308 20.4766 6.90824 20.4766Z"
                fill="white" fill-opacity="0.7" />
        </g>
    </g>
    <defs>
        <filter color-interpolation-filters="sRGB" filterUnits="userSpaceOnUse" height="30" id="filter0_d_320_5301" width="24.4727"
            x="0" y="2">
            <feFlood flood-opacity="0" result="BackgroundImageFix" />
            <feColorMatrix in="SourceAlpha" result="hardAlpha"
                type="matrix" values="0 0 0 0 0 0 0 0 0 0 0 0 0 0 0 0 0 0 127 0" />
            <feOffset dy="4" />
            <feGaussianBlur stdDeviation="2" />
            <feComposite in2="hardAlpha" operator="out" />
            <feColorMatrix type="matrix" values="0 0 0 0 0 0 0 0 0 0 0 0 0 0 0 0 0 0 0.25 0" />
            <feBlend in2="BackgroundImageFix" mode="normal" result="effect1_dropShadow_320_5301" />
            <feBlend in="SourceGraphic" in2="effect1_dropShadow_320_5301" mode="normal"
                result="shape" />
        </filter>
        <clipPath id="clip0_320_5301">
            <rect fill="white" height="22" transform="translate(4 2)" width="16.4718" />
        </clipPath>
    </defs>
</svg>
