<svg fill="none" height="18" viewBox="0 0 17 18" width="17" xmlns="http://www.w3.org/2000/svg">
    <g clip-path="url(#clip0_639_1133)">
        <path
            d="M11.9139 1.28978C11.2612 1.2889 10.6149 1.41866 10.0131 1.67142C9.41131 1.92417 8.86618 2.29481 8.40984 2.7615C7.72777 2.06537 6.85381 1.58816 5.89942 1.39076C4.94504 1.19335 3.95348 1.28468 3.05121 1.65311C2.14895 2.02153 1.37686 2.65035 0.833433 3.45937C0.290004 4.26838 -0.000142041 5.22093 5.21658e-08 6.19552C5.21658e-08 9.11093 1.40164 13.2878 8.09657 16.6377C8.19384 16.6863 8.30109 16.7116 8.40984 16.7116C8.51858 16.7116 8.62583 16.6863 8.7231 16.6377C15.418 13.2878 16.8197 9.11093 16.8197 6.19552C16.8182 4.89489 16.3009 3.64796 15.3812 2.72828C14.4615 1.80859 13.2146 1.29126 11.9139 1.28978ZM8.40984 15.2207C3.7585 12.8162 1.40164 9.78091 1.40164 6.19552C1.40199 5.44286 1.64468 4.71032 2.09378 4.10633C2.54287 3.50234 3.17451 3.05901 3.89518 2.84195C4.61586 2.62489 5.38727 2.64564 6.09524 2.90114C6.8032 3.15663 7.41008 3.63329 7.82605 4.26055C7.89374 4.3516 7.98179 4.42555 8.08315 4.47649C8.18451 4.52744 8.29639 4.55398 8.40984 4.55398C8.52328 4.55398 8.63516 4.52744 8.73652 4.47649C8.83789 4.42555 8.92593 4.3516 8.99362 4.26055C9.40959 3.63329 10.0165 3.15663 10.7244 2.90114C11.4324 2.64564 12.2038 2.62489 12.9245 2.84195C13.6452 3.05901 14.2768 3.50234 14.7259 4.10633C15.175 4.71032 15.4177 5.44286 15.418 6.19552C15.418 9.78091 13.0612 12.8162 8.40984 15.2207Z"
            fill="white" />
    </g>
    <defs>
        <clipPath id="clip0_639_1133">
            <rect fill="white" height="16.8197" transform="translate(0 0.589844)" width="16.8197" />
        </clipPath>
    </defs>
</svg>
