<svg fill="none" height="18" viewBox="0 0 17 18" width="17" xmlns="http://www.w3.org/2000/svg">
    <g clip-path="url(#clip0_639_1116)">
        <path
            d="M1.40234 7.59804C1.40234 13.5487 7.79802 17.1698 8.06994 17.3212C8.17412 17.3791 8.29134 17.4095 8.41054 17.4095C8.52974 17.4095 8.64697 17.3791 8.75114 17.3212C9.02306 17.1698 15.4187 13.5487 15.4187 7.59804C15.4187 5.73935 14.6804 3.95679 13.3661 2.6425C12.0518 1.32821 10.2692 0.589844 8.41054 0.589844C6.55185 0.589844 4.76929 1.32821 3.455 2.6425C2.14071 3.95679 1.40234 5.73935 1.40234 7.59804ZM8.41054 1.99148C9.89698 1.99315 11.3221 2.58438 12.3731 3.63545C13.4242 4.68652 14.0154 6.1116 14.0171 7.59804C14.0171 11.995 9.67202 15.0828 8.41054 15.8887C7.14907 15.0828 2.80398 11.995 2.80398 7.59804C2.80565 6.1116 3.39688 4.68652 4.44795 3.63545C5.49902 2.58438 6.9241 1.99315 8.41054 1.99148Z"
            fill="white" />
        <path
            d="M8.41035 11.1019C9.10339 11.1019 9.78088 10.8964 10.3571 10.5114C10.9334 10.1264 11.3825 9.5791 11.6477 8.93881C11.9129 8.29852 11.9823 7.59396 11.8471 6.91423C11.7119 6.23451 11.3782 5.61014 10.8881 5.12008C10.3981 4.63002 9.77369 4.29629 9.09396 4.16108C8.41424 4.02588 7.70968 4.09527 7.06939 4.36049C6.4291 4.6257 5.88183 5.07483 5.4968 5.65108C5.11176 6.22732 4.90625 6.9048 4.90625 7.59785C4.90736 8.52685 5.2769 9.41749 5.93381 10.0744C6.59071 10.7313 7.48135 11.1008 8.41035 11.1019ZM8.41035 5.49539C8.82618 5.49539 9.23267 5.6187 9.57841 5.84972C9.92416 6.08074 10.1936 6.4091 10.3528 6.79327C10.5119 7.17745 10.5535 7.60018 10.4724 8.00802C10.3913 8.41586 10.191 8.79048 9.89701 9.08451C9.60298 9.37855 9.22836 9.57879 8.82052 9.65991C8.41268 9.74103 7.98995 9.6994 7.60577 9.54027C7.2216 9.38114 6.89324 9.11166 6.66222 8.76591C6.4312 8.42017 6.30789 8.01368 6.30789 7.59785C6.30789 7.04024 6.5294 6.50547 6.92369 6.11119C7.31797 5.7169 7.85274 5.49539 8.41035 5.49539Z"
            fill="white" />
    </g>
    <defs>
        <clipPath id="clip0_639_1116">
            <rect fill="white" height="16.8197" transform="translate(0 0.589844)" width="16.8197" />
        </clipPath>
    </defs>
</svg>
