<svg xmlns="http://www.w3.org/2000/svg" width="20" height="20" viewBox="0 0 20 20">
  <g id="lang" transform="translate(-323 -224)">
    <path id="globe" d="M4.268,14.3a8.061,8.061,0,0,1,0-4.123H6.185a17.246,17.246,0,0,0,0,4.123Zm.845,2.062H6.556A12.525,12.525,0,0,0,7.587,19.01a8.247,8.247,0,0,1-2.474-2.649ZM6.556,8.114H5.113A8.247,8.247,0,0,1,7.556,5.465a12.525,12.525,0,0,0-1,2.649Zm4.659,12.061a6.536,6.536,0,0,1-2.5-3.814h2.5Zm0-5.876H8.268a14.8,14.8,0,0,1,0-4.123h2.948Zm0-6.185h-2.5a6.536,6.536,0,0,1,2.5-3.814Zm8.164,0H17.937a12.525,12.525,0,0,0-1.031-2.649A8.247,8.247,0,0,1,19.38,8.114ZM13.278,4.3a6.536,6.536,0,0,1,2.5,3.814h-2.5Zm0,15.875V16.361h2.5a6.536,6.536,0,0,1-2.5,3.814ZM16.226,14.3H13.278V10.176h2.948A14.8,14.8,0,0,1,16.226,14.3Zm.711,4.711a12.525,12.525,0,0,0,1.031-2.649h1.443A8.247,8.247,0,0,1,16.937,19.01ZM20.225,14.3H18.308a16.659,16.659,0,0,0,.124-2.062,16.782,16.782,0,0,0-.124-2.062h1.917A8.061,8.061,0,0,1,20.225,14.3Z" transform="translate(320.753 221.762)" fill="#666"/>
    <g id="Ellipse_468" data-name="Ellipse 468" transform="translate(323 224)" fill="none" stroke="#e00800" stroke-width="2">
      <circle cx="10" cy="10" r="10" stroke="none"/>
      <circle cx="10" cy="10" r="9" fill="none"/>
    </g>
  </g>
</svg>
