<svg id="logout" xmlns="http://www.w3.org/2000/svg" width="16" height="20" viewBox="0 0 16 20">
  <path id="exit" d="M20,12a1,1,0,0,1-1,1H11.41l2.3,2.29a1,1,0,1,1-1.42,1.42l-4-4a1.034,1.034,0,0,1,0-1.42l4-4a1,1,0,0,1,1.42,1.42L11.41,11H19A1,1,0,0,1,20,12ZM7,2H17a3,3,0,0,1,3,3V8a1,1,0,0,1-2,0V5a1,1,0,0,0-1-1H7A1,1,0,0,0,6,5V19a1,1,0,0,0,1,1H17a1,1,0,0,0,1-1V16a1,1,0,0,1,2,0v3a3,3,0,0,1-3,3H7a3,3,0,0,1-3-3V5A3,3,0,0,1,7,2Z" transform="translate(-4 -2)" fill="#666"/>
  <path id="exit-2" data-name="exit" d="M7,2H17a3,3,0,0,1,3,3V8a1,1,0,0,1-2,0V5a1,1,0,0,0-1-1H7A1,1,0,0,0,6,5V19a1,1,0,0,0,1,1H17a1,1,0,0,0,1-1V16a1,1,0,0,1,2,0v3a3,3,0,0,1-3,3H7a3,3,0,0,1-3-3V5A3,3,0,0,1,7,2Z" transform="translate(-4 -2)" fill="#e00800"/>
</svg>
