<svg fill="none" height="18" viewBox="0 0 17 18" width="17" xmlns="http://www.w3.org/2000/svg">
    <g clip-path="url(#clip0_639_1147)">
        <path
            d="M14.0164 1.99148H13.3156V1.29066C13.3156 1.10479 13.2417 0.926538 13.1103 0.795109C12.9789 0.66368 12.8006 0.589844 12.6148 0.589844C12.4289 0.589844 12.2506 0.66368 12.1192 0.795109C11.9878 0.926538 11.9139 1.10479 11.9139 1.29066V1.99148H4.90574V1.29066C4.90574 1.10479 4.8319 0.926538 4.70047 0.795109C4.56904 0.66368 4.39079 0.589844 4.20492 0.589844C4.01905 0.589844 3.84079 0.66368 3.70936 0.795109C3.57793 0.926538 3.5041 1.10479 3.5041 1.29066V1.99148H2.80328C2.0598 1.99148 1.34678 2.28683 0.821061 2.81254C0.295345 3.33826 0 4.05129 0 4.79476L0 14.6062C0 15.3497 0.295345 16.0627 0.821061 16.5885C1.34678 17.1142 2.0598 17.4095 2.80328 17.4095H14.0164C14.7599 17.4095 15.4729 17.1142 15.9986 16.5885C16.5243 16.0627 16.8197 15.3497 16.8197 14.6062V4.79476C16.8197 4.05129 16.5243 3.33826 15.9986 2.81254C15.4729 2.28683 14.7599 1.99148 14.0164 1.99148ZM15.418 14.6062C15.418 14.978 15.2704 15.3345 15.0075 15.5973C14.7446 15.8602 14.3881 16.0079 14.0164 16.0079H2.80328C2.43154 16.0079 2.07503 15.8602 1.81217 15.5973C1.54931 15.3345 1.40164 14.978 1.40164 14.6062V4.79476C1.40164 4.42302 1.54931 4.06651 1.81217 3.80365C2.07503 3.54079 2.43154 3.39312 2.80328 3.39312H3.5041V4.09394C3.5041 4.27981 3.57793 4.45807 3.70936 4.5895C3.84079 4.72093 4.01905 4.79476 4.20492 4.79476C4.39079 4.79476 4.56904 4.72093 4.70047 4.5895C4.8319 4.45807 4.90574 4.27981 4.90574 4.09394V3.39312H11.9139V4.09394C11.9139 4.27981 11.9878 4.45807 12.1192 4.5895C12.2506 4.72093 12.4289 4.79476 12.6148 4.79476C12.8006 4.79476 12.9789 4.72093 13.1103 4.5895C13.2417 4.45807 13.3156 4.27981 13.3156 4.09394V3.39312H14.0164C14.3881 3.39312 14.7446 3.54079 15.0075 3.80365C15.2704 4.06651 15.418 4.42302 15.418 4.79476V14.6062Z"
            fill="white" />
        <path
            d="M13.315 5.49609H3.50355C3.31769 5.49609 3.13943 5.56993 3.008 5.70136C2.87657 5.83279 2.80273 6.01104 2.80273 6.19691C2.80273 6.38278 2.87657 6.56104 3.008 6.69247C3.13943 6.8239 3.31769 6.89773 3.50355 6.89773H13.315C13.5009 6.89773 13.6792 6.8239 13.8106 6.69247C13.942 6.56104 14.0159 6.38278 14.0159 6.19691C14.0159 6.01104 13.942 5.83279 13.8106 5.70136C13.6792 5.56993 13.5009 5.49609 13.315 5.49609Z"
            fill="white" />
        <path
            d="M4.90519 9H3.50355C3.31769 9 3.13943 9.07384 3.008 9.20527C2.87657 9.33669 2.80273 9.51495 2.80273 9.70082C2.80273 9.88669 2.87657 10.0649 3.008 10.1964C3.13943 10.3278 3.31769 10.4016 3.50355 10.4016H4.90519C5.09106 10.4016 5.26932 10.3278 5.40075 10.1964C5.53218 10.0649 5.60601 9.88669 5.60601 9.70082C5.60601 9.51495 5.53218 9.33669 5.40075 9.20527C5.26932 9.07384 5.09106 9 4.90519 9Z"
            fill="white" />
        <path
            d="M4.90519 12.5039H3.50355C3.31769 12.5039 3.13943 12.5777 3.008 12.7092C2.87657 12.8406 2.80273 13.0189 2.80273 13.2047C2.80273 13.3906 2.87657 13.5689 3.008 13.7003C3.13943 13.8317 3.31769 13.9055 3.50355 13.9055H4.90519C5.09106 13.9055 5.26932 13.8317 5.40075 13.7003C5.53218 13.5689 5.60601 13.3906 5.60601 13.2047C5.60601 13.0189 5.53218 12.8406 5.40075 12.7092C5.26932 12.5777 5.09106 12.5039 4.90519 12.5039Z"
            fill="white" />
        <path
            d="M9.11027 9H7.70863C7.52276 9 7.34451 9.07384 7.21308 9.20527C7.08165 9.33669 7.00781 9.51495 7.00781 9.70082C7.00781 9.88669 7.08165 10.0649 7.21308 10.1964C7.34451 10.3278 7.52276 10.4016 7.70863 10.4016H9.11027C9.29614 10.4016 9.4744 10.3278 9.60583 10.1964C9.73726 10.0649 9.81109 9.88669 9.81109 9.70082C9.81109 9.51495 9.73726 9.33669 9.60583 9.20527C9.4744 9.07384 9.29614 9 9.11027 9Z"
            fill="white" />
        <path
            d="M9.11027 12.5039H7.70863C7.52276 12.5039 7.34451 12.5777 7.21308 12.7092C7.08165 12.8406 7.00781 13.0189 7.00781 13.2047C7.00781 13.3906 7.08165 13.5689 7.21308 13.7003C7.34451 13.8317 7.52276 13.9055 7.70863 13.9055H9.11027C9.29614 13.9055 9.4744 13.8317 9.60583 13.7003C9.73726 13.5689 9.81109 13.3906 9.81109 13.2047C9.81109 13.0189 9.73726 12.8406 9.60583 12.7092C9.4744 12.5777 9.29614 12.5039 9.11027 12.5039Z"
            fill="white" />
        <path
            d="M13.3153 9H11.9137C11.7278 9 11.5496 9.07384 11.4182 9.20527C11.2867 9.33669 11.2129 9.51495 11.2129 9.70082C11.2129 9.88669 11.2867 10.0649 11.4182 10.1964C11.5496 10.3278 11.7278 10.4016 11.9137 10.4016H13.3153C13.5012 10.4016 13.6795 10.3278 13.8109 10.1964C13.9423 10.0649 14.0162 9.88669 14.0162 9.70082C14.0162 9.51495 13.9423 9.33669 13.8109 9.20527C13.6795 9.07384 13.5012 9 13.3153 9Z"
            fill="white" />
        <path
            d="M13.3153 12.5039H11.9137C11.7278 12.5039 11.5496 12.5777 11.4182 12.7092C11.2867 12.8406 11.2129 13.0189 11.2129 13.2047C11.2129 13.3906 11.2867 13.5689 11.4182 13.7003C11.5496 13.8317 11.7278 13.9055 11.9137 13.9055H13.3153C13.5012 13.9055 13.6795 13.8317 13.8109 13.7003C13.9423 13.5689 14.0162 13.3906 14.0162 13.2047C14.0162 13.0189 13.9423 12.8406 13.8109 12.7092C13.6795 12.5777 13.5012 12.5039 13.3153 12.5039Z"
            fill="white" />
    </g>
    <defs>
        <clipPath id="clip0_639_1147">
            <rect fill="white" height="16.8197" transform="translate(0 0.589844)" width="16.8197" />
        </clipPath>
    </defs>
</svg>
