<svg fill="none" height="16" viewBox="0 0 29 16" width="29" xmlns="http://www.w3.org/2000/svg">
    <g clip-path="url(#clip0_320_5294)">
        <path
            d="M22.998 0.498047C22.998 0.498047 21.998 7.99805 18.4058 12.1304C18.4058 12.1304 16.4739 13.6338 11.8941 13.8889C7.31419 14.1439 2.59739 11.6667 1.4043 1.13116L22.998 0.498047Z"
            fill="#922E25" />
        <path
            d="M22.0321 9.61056C26.1601 9.05142 28.0942 6.60302 28.5205 4.45831C28.8497 2.80172 28.3 1.24219 27.1199 0.485466C25.9047 -0.293397 24.7559 -0.0327315 23.8572 0.550006C23.7106 0.225079 23.4053 0.0033327 23.0548 0.0033327H1.40639C0.935848 0.0033327 0.545641 0.402128 0.513559 0.915591C0.507893 1.00923 0.0943243 8.88607 5.28516 13.1712H1.3948C0.900647 13.1712 0.5 13.6094 0.5 14.1499C0.5 14.6904 0.900647 15.1286 1.3948 15.1286H27.1116C27.6057 15.1286 28.0064 14.6904 28.0064 14.1499C28.0064 13.6094 27.6057 13.1712 27.1116 13.1712H19.1761C20.4258 12.1395 21.3484 10.8999 22.0321 9.61056ZM26.2146 2.17408C26.7225 2.49977 26.9359 3.21563 26.7717 4.0426C26.5263 5.27693 25.3768 6.78084 22.9684 7.43744C23.5124 5.84038 23.7615 4.30403 23.8723 3.12317C24.1405 2.74422 25.1435 1.48691 26.2146 2.17408ZM9.11391 13.1712C3.09574 10.967 2.35428 4.39955 2.29139 1.96069H22.1696C22.1069 4.40074 21.365 10.9672 15.3475 13.1712H9.11391V13.1712Z"
            fill="white" />
    </g>
    <defs>
        <clipPath id="clip0_320_5294">
            <rect fill="white" height="15.1286" transform="translate(0.5)" width="28.1147" />
        </clipPath>
    </defs>
</svg>
