<svg fill="none" height="18" viewBox="0 0 17 18" width="17" xmlns="http://www.w3.org/2000/svg">
    <g clip-path="url(#clip0_639_1100)">
        <path
            d="M14.7172 3.39312H8.40984V2.6923C8.40984 2.1347 8.18833 1.59993 7.79404 1.20564C7.39975 0.811352 6.86498 0.589844 6.30738 0.589844L2.10246 0.589844C1.54485 0.589844 1.01008 0.811352 0.615796 1.20564C0.221508 1.59993 0 2.1347 0 2.6923L0 13.9054C0.0011128 14.8344 0.370651 15.7251 1.02756 16.382C1.68446 17.0389 2.5751 17.4084 3.5041 17.4095H13.3156C14.2446 17.4084 15.1352 17.0389 15.7921 16.382C16.449 15.7251 16.8186 14.8344 16.8197 13.9054V5.49558C16.8197 4.93797 16.5982 4.40321 16.2039 4.00892C15.8096 3.61463 15.2748 3.39312 14.7172 3.39312ZM15.418 13.9054C15.418 14.463 15.1965 14.9978 14.8022 15.3921C14.408 15.7864 13.8732 16.0079 13.3156 16.0079H3.5041C2.94649 16.0079 2.41172 15.7864 2.01744 15.3921C1.62315 14.9978 1.40164 14.463 1.40164 13.9054V2.6923C1.40164 2.50643 1.47548 2.32818 1.6069 2.19675C1.73833 2.06532 1.91659 1.99148 2.10246 1.99148H6.30738C6.49325 1.99148 6.6715 2.06532 6.80293 2.19675C6.93436 2.32818 7.0082 2.50643 7.0082 2.6923V3.39312H3.5041C3.31823 3.39312 3.13997 3.46696 3.00854 3.59839C2.87712 3.72982 2.80328 3.90807 2.80328 4.09394C2.80328 4.27981 2.87712 4.45807 3.00854 4.5895C3.13997 4.72093 3.31823 4.79476 3.5041 4.79476H14.7172C14.9031 4.79476 15.0813 4.8686 15.2128 5.00003C15.3442 5.13146 15.418 5.30971 15.418 5.49558V13.9054Z"
            fill="white" />
        <path
            d="M9.81093 13.2031H3.50355C3.31769 13.2031 3.13943 13.277 3.008 13.4084C2.87657 13.5398 2.80273 13.7181 2.80273 13.9039C2.80273 14.0898 2.87657 14.2681 3.008 14.3995C3.13943 14.5309 3.31769 14.6048 3.50355 14.6048H9.81093C9.9968 14.6048 10.1751 14.5309 10.3065 14.3995C10.4379 14.2681 10.5118 14.0898 10.5118 13.9039C10.5118 13.7181 10.4379 13.5398 10.3065 13.4084C10.1751 13.277 9.9968 13.2031 9.81093 13.2031Z"
            fill="white" />
        <path
            d="M3.50355 11.804H6.30683C6.4927 11.804 6.67096 11.7301 6.80239 11.5987C6.93382 11.4673 7.00765 11.289 7.00765 11.1032C7.00765 10.9173 6.93382 10.739 6.80239 10.6076C6.67096 10.4762 6.4927 10.4023 6.30683 10.4023H3.50355C3.31769 10.4023 3.13943 10.4762 3.008 10.6076C2.87657 10.739 2.80273 10.9173 2.80273 11.1032C2.80273 11.289 2.87657 11.4673 3.008 11.5987C3.13943 11.7301 3.31769 11.804 3.50355 11.804Z"
            fill="white" />
    </g>
    <defs>
        <clipPath id="clip0_639_1100">
            <rect fill="white" height="16.8197" transform="translate(0 0.589844)" width="16.8197" />
        </clipPath>
    </defs>
</svg>
