<svg width="17" height="22" viewBox="0 0 17 22" fill="none" xmlns="http://www.w3.org/2000/svg">
<g clip-path="url(#clip0_320_5302)">
<rect width="16.4718" height="22" fill="#922E25"/>
<path d="M16.4574 5.94009L16.1281 4.3553V0.687491C16.1281 0.307823 15.8202 0 15.4405 0H1.03126C0.651593 0 0.34377 0.307823 0.34377 0.687491V4.3553L0.0144767 5.94009C0.00489081 5.98607 0 6.03307 0 6.08007V18.1758C0 18.2337 0.00738497 18.2913 0.0218126 18.3475L0.343721 19.5951V21.3126C0.343721 21.6922 0.651544 22 1.03121 22H15.4405C15.8202 22 16.128 21.6922 16.128 21.3126V19.5951L16.4499 18.3475C16.4644 18.2913 16.4718 18.2337 16.4718 18.1758V6.08007C16.4718 6.03307 16.467 5.98607 16.4574 5.94009ZM14.7531 1.37498V3.23454L14.6918 3.19659C14.4699 3.05945 14.1899 3.05945 13.968 3.19659L13.2196 3.66003L12.4727 3.19693C12.2508 3.0593 11.97 3.0593 11.7481 3.19693L11.0019 3.65969L10.2558 3.19693C10.0337 3.05911 9.75272 3.05945 9.53068 3.19707L8.78611 3.65949L8.04018 3.19693C7.81828 3.0593 7.53731 3.0593 7.31542 3.19693L6.56948 3.65969L5.82374 3.19712C5.60185 3.05916 5.32088 3.0593 5.09864 3.19712L4.35393 3.65954L3.60839 3.19712C3.38635 3.05916 3.10532 3.0595 2.88329 3.19712L2.13872 3.65954L1.71875 3.39887V1.37498H14.7531ZM15.0968 18.0885L14.7749 19.3361C14.7605 19.3922 14.7531 19.4499 14.7531 19.5078V20.625H1.71875V19.5078C1.71875 19.4499 1.71137 19.3922 1.69694 19.3361L1.37503 18.0885V6.15059L1.62294 4.95769L1.77636 5.05286C1.9984 5.19083 2.27957 5.19069 2.50161 5.05286L3.24618 4.59045L3.99177 5.05286C4.21366 5.19083 4.49464 5.19069 4.71687 5.05286L5.46158 4.59045L6.20718 5.05286C6.42907 5.19083 6.71004 5.19069 6.93193 5.05301L7.67782 4.59025L8.4239 5.05301C8.64594 5.19083 8.92696 5.19064 9.149 5.05286L9.89357 4.59045L10.6395 5.05301C10.8614 5.19064 11.1424 5.19064 11.3643 5.05301L12.1105 4.59025L12.8571 5.05301C13.0786 5.19049 13.3589 5.19064 13.5811 5.05335L14.3299 4.58976L14.8378 4.90414L15.0968 6.15059L15.0968 18.0885Z" fill="white"/>
<path d="M8.92531 8.43945C8.92179 8.43945 8.91807 8.43945 8.9144 8.43945C8.07031 8.44283 7.19012 8.84529 6.49994 9.54339C5.28122 10.7757 5.06754 12.5524 6.02358 13.5041C6.4145 13.893 6.94104 14.0984 7.54695 14.0984C7.55047 14.0984 7.55419 14.0984 7.55786 14.0982C8.40195 14.0949 9.28213 13.6925 9.97232 12.9945C11.191 11.762 11.4047 9.98532 10.4487 9.03382C10.0578 8.64491 9.53122 8.43945 8.92531 8.43945ZM7.23306 10.2685C7.72488 9.77115 8.35495 9.47306 8.91856 9.47071C8.92076 9.47071 8.92276 9.47071 8.92492 9.47071C9.03838 9.47071 9.17444 9.48382 9.31241 9.52559C9.25675 9.78675 9.07271 10.2457 8.46553 10.6253C8.22549 10.7754 8.01671 10.891 7.83242 10.9931C7.22304 11.3309 6.81794 11.5836 6.47725 12.2103C6.37537 11.6269 6.64701 10.8612 7.23306 10.2685ZM9.23915 12.2694C8.74733 12.7665 8.11726 13.0648 7.55365 13.0672C7.45598 13.0682 7.34433 13.0554 7.23081 13.0289C7.49482 12.3599 7.74385 12.2214 8.33245 11.8951C8.53033 11.7854 8.75442 11.6609 9.01241 11.4996C9.50202 11.1935 9.81268 10.8403 10.013 10.5052C10.0383 11.0609 9.76754 11.735 9.23915 12.2694Z" fill="white"/>
<path d="M13.7363 18.4766H13.5645C13.2796 18.4766 13.0488 18.7075 13.0488 18.9922C13.0488 19.2769 13.2796 19.5078 13.5645 19.5078H13.7363C14.0212 19.5078 14.2519 19.2769 14.2519 18.9922C14.2519 18.7075 14.0212 18.4766 13.7363 18.4766Z" fill="white"/>
<path d="M6.58224 18.4766H6.21485C5.93001 18.4766 5.69922 18.7075 5.69922 18.9922C5.69922 19.2769 5.93001 19.5078 6.21485 19.5078H6.58224C6.86708 19.5078 7.09787 19.2769 7.09787 18.9922C7.09787 18.7075 6.86708 18.4766 6.58224 18.4766Z" fill="white"/>
<path d="M4.74435 18.4766H4.37696C4.09212 18.4766 3.86133 18.7075 3.86133 18.9922C3.86133 19.2769 4.09212 19.5078 4.37696 19.5078H4.74435C5.02919 19.5078 5.25998 19.2769 5.25998 18.9922C5.25998 18.7075 5.02919 18.4766 4.74435 18.4766Z" fill="white"/>
<path d="M12.094 18.4766H11.7266C11.4417 18.4766 11.2109 18.7075 11.2109 18.9922C11.2109 19.2769 11.4417 19.5078 11.7266 19.5078H12.094C12.3788 19.5078 12.6096 19.2769 12.6096 18.9922C12.6096 18.7075 12.3788 18.4766 12.094 18.4766Z" fill="white"/>
<path d="M8.42033 18.4766H8.05274C7.7679 18.4766 7.53711 18.7075 7.53711 18.9922C7.53711 19.2769 7.7679 19.5078 8.05274 19.5078H8.42033C8.70516 19.5078 8.93596 19.2769 8.93596 18.9922C8.93596 18.7075 8.70516 18.4766 8.42033 18.4766Z" fill="white"/>
<path d="M10.2561 18.4766H9.88868C9.60384 18.4766 9.37305 18.7075 9.37305 18.9922C9.37305 19.2769 9.60384 19.5078 9.88868 19.5078H10.2561C10.5409 19.5078 10.7717 19.2769 10.7717 18.9922C10.7717 18.7075 10.5409 18.4766 10.2561 18.4766Z" fill="white"/>
<path d="M2.90824 18.4766H2.73633C2.4515 18.4766 2.2207 18.7075 2.2207 18.9922C2.2207 19.2769 2.4515 19.5078 2.73633 19.5078H2.90819C3.19303 19.5078 3.42382 19.2769 3.42382 18.9922C3.42382 18.7075 3.19308 18.4766 2.90824 18.4766Z" fill="white"/>
</g>
<defs>
<clipPath id="clip0_320_5302">
<rect width="16.4718" height="22" fill="white"/>
</clipPath>
</defs>
</svg>
