<svg fill="none" height="16" viewBox="0 0 18 16" width="18" xmlns="http://www.w3.org/2000/svg">
    <path
        d="M2.85195 6.47656V6.62656H3.00195H4.00195H4.15195V6.47656V2.47656C4.15195 2.00713 4.53252 1.62656 5.00195 1.62656H13.002C13.4714 1.62656 13.852 2.00712 13.852 2.47656V6.47656V6.62656H14.002H15.002H15.152V6.47656V2.47656C15.152 1.28915 14.1894 0.326562 13.002 0.326562H5.00195C3.81454 0.326562 2.85195 1.28915 2.85195 2.47656V6.47656ZM15.152 9.47656V9.32656H15.002H14.002H13.852V9.47656V13.4766C13.852 13.946 13.4714 14.3266 13.002 14.3266H5.00195C4.53251 14.3266 4.15195 13.946 4.15195 13.4766V9.47656V9.32656H4.00195H3.00195H2.85195V9.47656V13.4766C2.85195 14.664 3.81454 15.6266 5.00195 15.6266H13.002C14.1894 15.6266 15.152 14.664 15.152 13.4766V9.47656ZM16.502 8.62656C16.8609 8.62656 17.152 8.33555 17.152 7.97656C17.152 7.61757 16.8609 7.32656 16.502 7.32656H1.50195C1.14297 7.32656 0.851953 7.61758 0.851953 7.97656C0.851953 8.33555 1.14297 8.62656 1.50195 8.62656H16.502Z"
        fill="white" stroke="white" stroke-width="0.3" />
</svg>
