<svg fill="none" height="21" viewBox="0 0 21 21" width="21" xmlns="http://www.w3.org/2000/svg">
    <path
        d="M17.7628 7.76691L17.7628 7.76692L16.3486 9.18113C16.3486 9.18113 16.3486 9.18114 16.3486 9.18114C16.0752 9.45451 16.0752 9.89772 16.3486 10.1711C16.3486 10.1711 16.3486 10.1711 16.3486 10.1711L17.7628 11.5853C18.0362 11.8587 18.4795 11.8587 18.7528 11.5853C19.0262 11.3119 19.0262 10.8687 18.7528 10.5954L17.8336 9.67612L18.7527 8.75689C18.7528 8.75688 18.7528 8.75688 18.7528 8.75687C19.0262 8.48351 19.0262 8.04032 18.7528 7.76695C18.4795 7.49353 18.0362 7.49358 17.7628 7.76691ZM6.24414 3.97187C5.85754 3.97187 5.54414 4.28528 5.54414 4.67188C5.54414 5.05847 5.85754 5.37188 6.24414 5.37188H14.2441C14.6307 5.37188 14.9441 5.05848 14.9441 4.67188C14.9441 4.28527 14.6307 3.97187 14.2441 3.97187H6.24414ZM3.24414 8.97188C2.85754 8.97188 2.54414 9.28528 2.54414 9.67188C2.54414 10.0585 2.85754 10.3719 3.24414 10.3719H14.2441C14.6307 10.3719 14.9441 10.0585 14.9441 9.67188C14.9441 9.28527 14.6307 8.97188 14.2441 8.97188H3.24414ZM8.24414 13.9719C7.85753 13.9719 7.54414 14.2853 7.54414 14.6719C7.54414 15.0584 7.85753 15.3719 8.24414 15.3719H14.2441C14.6307 15.3719 14.9441 15.0584 14.9441 14.6719C14.9441 14.2853 14.6307 13.9719 14.2441 13.9719H8.24414Z"
        fill="white" stroke="white" stroke-width="0.4" />
</svg>
