<svg fill="none" height="24" viewBox="0 0 32 24" width="32" xmlns="http://www.w3.org/2000/svg">
    <g clip-path="url(#clip0_255_1023)">
        <path
            d="M22.5321 14.1106C26.6601 13.5514 28.5942 11.103 29.0205 8.95831C29.3497 7.30172 28.8 5.74219 27.6199 4.98547C26.4047 4.2066 25.2559 4.46727 24.3572 5.05001C24.2106 4.72508 23.9053 4.50333 23.5548 4.50333H1.90639C1.43585 4.50333 1.04564 4.90213 1.01356 5.41559C1.00789 5.50923 0.594324 13.3861 5.78516 17.6712H1.8948C1.40065 17.6712 1 18.1094 1 18.6499C1 19.1904 1.40065 19.6286 1.8948 19.6286H27.6116C28.1057 19.6286 28.5064 19.1904 28.5064 18.6499C28.5064 18.1094 28.1057 17.6712 27.6116 17.6712H19.6761C20.9258 16.6395 21.8484 15.3999 22.5321 14.1106ZM26.7146 6.67408C27.2225 6.99977 27.4359 7.71563 27.2717 8.5426C27.0263 9.77693 25.8768 11.2808 23.4684 11.9374C24.0124 10.3404 24.2615 8.80403 24.3723 7.62317C24.6405 7.24422 25.6435 5.98691 26.7146 6.67408ZM9.61391 17.6712C3.59574 15.467 2.85428 8.89955 2.79139 6.46069H22.6696C22.6069 8.90074 21.865 15.4672 15.8475 17.6712H9.61391V17.6712Z"
            fill="white" />
    </g>
    <defs>
        <clipPath id="clip0_255_1023">
            <rect fill="white" height="15.1286" transform="translate(1 4.5)" width="28.1147" />
        </clipPath>
    </defs>
</svg>
