<svg fill="none" height="39" viewBox="0 0 32 39" width="32" xmlns="http://www.w3.org/2000/svg">
    <g filter="url(#filter0_d_533_3613)">
        <path
            d="M23.54 27H8.46C7.54235 27 6.66229 26.6355 6.01341 25.9866C5.36453 25.3377 5 24.4576 5 23.54V8.46C5 7.54235 5.36453 6.66229 6.01341 6.01341C6.66229 5.36453 7.54235 5 8.46 5H23.54C24.4576 5 25.3377 5.36453 25.9866 6.01341C26.6355 6.66229 27 7.54235 27 8.46V23.54C27 24.4576 26.6355 25.3377 25.9866 25.9866C25.3377 26.6355 24.4576 27 23.54 27ZM8.46 7C8.07278 7 7.70143 7.15382 7.42762 7.42762C7.15382 7.70143 7 8.07278 7 8.46V23.54C7 23.9272 7.15382 24.2986 7.42762 24.5724C7.70143 24.8462 8.07278 25 8.46 25H23.54C23.9272 25 24.2986 24.8462 24.5724 24.5724C24.8462 24.2986 25 23.9272 25 23.54V8.46C25 8.07278 24.8462 7.70143 24.5724 7.42762C24.2986 7.15382 23.9272 7 23.54 7H8.46Z"
            fill="#EF9B28" />
        <path
            d="M22 7H10V3C10 2.46957 10.2107 1.96086 10.5858 1.58579C10.9609 1.21071 11.4696 1 12 1H20C20.5304 1 21.0391 1.21071 21.4142 1.58579C21.7893 1.96086 22 2.46957 22 3V7ZM12 5H20V3H12V5Z"
            fill="#EF9B28" />
        <path
            d="M20 31H12C11.4696 31 10.9609 30.7893 10.5858 30.4142C10.2107 30.0391 10 29.5304 10 29V25H22V29C22 29.5304 21.7893 30.0391 21.4142 30.4142C21.0391 30.7893 20.5304 31 20 31ZM12 27V29H20V27H12Z"
            fill="#EF9B28" />
        <path
            d="M21.8684 13.2766C22.5775 14.8028 22.6759 16.5425 22.1433 18.139C21.6107 19.7354 20.4875 21.0676 19.004 21.8624C17.6351 22.5713 16.0589 22.7714 14.5562 22.4271C13.0535 22.0827 11.7218 21.2163 10.7981 19.982C10.7146 19.8635 10.6578 19.7283 10.6318 19.5857C10.6057 19.4431 10.6109 19.2965 10.6471 19.1561C10.6833 19.0158 10.7496 18.8849 10.8414 18.7727C10.9332 18.6605 11.0482 18.5696 11.1786 18.5063C11.3902 18.3967 11.6339 18.3662 11.866 18.4204C12.098 18.4746 12.303 18.6098 12.4442 18.8017C12.9388 19.4549 13.6024 19.9607 14.3633 20.2645C15.1243 20.5682 15.9537 20.6585 16.7622 20.5254C17.5707 20.3924 18.3275 20.0412 18.951 19.5097C19.5745 18.9782 20.0411 18.2865 20.3004 17.5092C20.5597 16.732 20.6018 15.8988 20.4224 15.0993C20.2429 14.2999 19.8485 13.5646 19.2818 12.9729C18.7152 12.3811 17.9977 11.9552 17.2068 11.7413C16.4159 11.5273 15.5816 11.5334 14.7938 11.7587C14.5657 11.8275 14.3205 11.8125 14.1025 11.7165C13.8844 11.6205 13.7078 11.4498 13.6044 11.2352C13.5381 11.1063 13.5007 10.9645 13.4947 10.8196C13.4887 10.6748 13.5142 10.5304 13.5695 10.3964C13.6249 10.2624 13.7087 10.142 13.8151 10.0437C13.9216 9.94528 14.0482 9.87122 14.1861 9.82661C15.6678 9.39848 17.2533 9.51029 18.6602 10.1421C20.0671 10.7739 21.204 11.8847 21.8684 13.2766Z"
            fill="white" />
        <path
            d="M17 16C17 15.4477 16.5523 15 16 15C15.4477 15 15 15.4477 15 16C15 16.5523 15.4477 17 16 17C16.5523 17 17 16.5523 17 16Z"
            fill="white" />
    </g>
    <defs>
        <filter color-interpolation-filters="sRGB" filterUnits="userSpaceOnUse" height="40" id="filter0_d_533_3613" width="40"
            x="-4" y="0">
            <feFlood flood-opacity="0" result="BackgroundImageFix" />
            <feColorMatrix in="SourceAlpha" result="hardAlpha"
                type="matrix" values="0 0 0 0 0 0 0 0 0 0 0 0 0 0 0 0 0 0 127 0" />
            <feOffset dy="4" />
            <feGaussianBlur stdDeviation="2" />
            <feComposite in2="hardAlpha" operator="out" />
            <feColorMatrix type="matrix" values="0 0 0 0 0 0 0 0 0 0 0 0 0 0 0 0 0 0 0.25 0" />
            <feBlend in2="BackgroundImageFix" mode="normal" result="effect1_dropShadow_533_3613" />
            <feBlend in="SourceGraphic" in2="effect1_dropShadow_533_3613" mode="normal"
                result="shape" />
        </filter>
    </defs>
</svg>
